<?xml version="1.0" encoding="UTF-8"?>
<!DOCTYPE svg PUBLIC "-//W3C//DTD SVG 1.1//EN" "http://www.w3.org/Graphics/SVG/1.1/DTD/svg11.dtd">
<!-- Creator: CorelDRAW 2018 (64 Bit Versão de avaliação) -->
<svg xmlns="http://www.w3.org/2000/svg" xml:space="preserve" width="64px" height="64px" version="1.1" style="shape-rendering:geometricPrecision; text-rendering:geometricPrecision; image-rendering:optimizeQuality; fill-rule:evenodd; clip-rule:evenodd"
viewBox="0 0 5.604 5.604"
 xmlns:xlink="http://www.w3.org/1999/xlink">
 <defs>
  <style type="text/css">
   <![CDATA[
    .fil0 {fill:black}
    .fil2 {fill:#99FF99}
    .fil1 {fill:#99FF99;fill-rule:nonzero}
   ]]>
  </style>
 </defs>
 <g id="Camada_x0020_1">
  <metadata id="CorelCorpID_0Corel-Layer"/>
  <rect class="fil0" width="5.604" height="5.604"/>
  <path class="fil1" d="M1.887 1.317c0.11,0.068 0.197,0.145 0.278,0.244 -0.029,-0.025 -0.076,-0.055 -0.143,-0.089 -0.022,-0.029 -0.069,-0.089 -0.135,-0.155z"/>
  <g id="_2506595352800">
   <path class="fil1" d="M3.592 1.938c-0.012,0.003 -0.048,0.014 -0.083,0.031 -0.018,0.008 -0.035,0.018 -0.048,0.028 0.006,0.004 0.011,0.007 0.016,0.01 0.003,0.002 0.006,0.003 0.008,0.004 0.001,0.001 0.001,0.001 0.002,0.001l0 0 -0.002 0.005 0.001 -0.005 0.001 0 -0.002 0.005 0.001 -0.005 -0.002 0.009 0 -0.009c0.001,0 0.002,0 0.002,0l-0.002 0.009 0 -0.009c0.005,0 0.01,0.004 0.01,0.01 0,0.006 -0.005,0.01 -0.01,0.01 -0.002,0 -0.003,0 -0.004,0 -0.001,0 -0.001,-0.001 -0.002,-0.001 -0.002,-0.001 -0.005,-0.003 -0.01,-0.005 -0.005,-0.004 -0.013,-0.008 -0.022,-0.014 -0.003,0.003 -0.005,0.006 -0.006,0.009 -0.004,0.006 -0.006,0.012 -0.006,0.018 0,0.008 0.003,0.017 0.012,0.028 0.007,0.01 0.019,0.022 0.035,0.036 0.028,0.025 0.066,0.055 0.107,0.089 0.062,0.052 0.132,0.112 0.187,0.177 0.028,0.033 0.051,0.067 0.068,0.102 0.017,0.033 0.027,0.068 0.027,0.103 0.003,-0.003 0.006,-0.006 0.009,-0.009 0.027,-0.024 0.058,-0.038 0.089,-0.047 0.03,-0.008 0.06,-0.01 0.085,-0.01 0.015,0 0.028,0.001 0.037,0.002 -0.013,-0.083 -0.045,-0.166 -0.1,-0.245 -0.073,-0.107 -0.186,-0.208 -0.346,-0.298 -0.016,-0.009 -0.034,-0.019 -0.052,-0.029zm-0.717 -0.341c-0.006,0.01 -0.014,0.023 -0.025,0.036 -0.01,0.012 -0.022,0.024 -0.037,0.035 0.01,0.008 0.024,0.016 0.04,0.024 0.04,0.021 0.094,0.045 0.153,0.071 0.071,0.03 0.149,0.063 0.219,0.097 -0.029,-0.021 -0.058,-0.043 -0.086,-0.066 -0.083,-0.065 -0.16,-0.133 -0.207,-0.193l-0.011 -0.005c-0.002,0 -0.008,0 -0.017,0 -0.008,0 -0.018,0 -0.029,0.001zm-0.088 0.088c-0.007,0.003 -0.015,0.007 -0.023,0.009 -0.003,0.005 -0.007,0.01 -0.011,0.015 0.036,0.025 0.121,0.087 0.211,0.16 0.059,0.048 0.12,0.1 0.17,0.15 0.025,0.025 0.047,0.05 0.065,0.073 0.012,0.016 0.023,0.031 0.031,0.045 0.035,-0.014 0.071,-0.025 0.1,-0.037 0.023,-0.01 0.042,-0.019 0.054,-0.03 0.007,-0.006 0.011,-0.011 0.014,-0.017 0.003,-0.005 0.004,-0.011 0.004,-0.018 0,-0.004 0,-0.007 -0.001,-0.011 -0.001,-0.006 -0.004,-0.012 -0.009,-0.019 -0.009,-0.014 -0.026,-0.029 -0.048,-0.045 -0.039,-0.028 -0.094,-0.057 -0.155,-0.085 -0.091,-0.043 -0.195,-0.085 -0.276,-0.122 -0.041,-0.019 -0.077,-0.036 -0.103,-0.052 -0.009,-0.006 -0.016,-0.011 -0.023,-0.016zm-0.05 -0.004c0,-0.001 0.001,-0.001 0.002,-0.001 0.001,-0.001 0.002,-0.002 0.003,-0.004 0.01,-0.016 0.016,-0.029 0.02,-0.037 0,-0.002 0.001,-0.003 0.001,-0.004 0.001,-0.003 0.001,-0.006 0.002,-0.009 -0.001,-0.008 -0.004,-0.016 -0.009,-0.025 -0.01,-0.018 -0.028,-0.037 -0.052,-0.056 -0.012,-0.009 -0.025,-0.018 -0.04,-0.027 0.005,0.006 0.01,0.012 0.015,0.019 0.033,0.043 0.056,0.092 0.058,0.144zm0.06 -0.026c0.015,-0.011 0.027,-0.023 0.037,-0.035 0.006,-0.006 0.011,-0.013 0.015,-0.019 -0.007,0.001 -0.013,0.002 -0.019,0.004 -0.012,0.004 -0.022,0.01 -0.029,0.016 -0.003,0.003 -0.006,0.006 -0.007,0.01l0 0c0,0 -0.001,0.004 -0.003,0.01 0,0.001 0,0.002 0,0.003 0,0.001 0,0.002 0,0.003l0 0c0,0 0,0 0.001,0.002 0.001,0.001 0.002,0.003 0.005,0.006zm0.624 0.341l0 0 0 0.001 0 -0.001zm-0.442 -0.372c0.03,0.032 0.067,0.067 0.107,0.101 0.085,0.071 0.184,0.144 0.263,0.198 0.033,0.023 0.063,0.043 0.087,0.058 0.007,-0.007 0.015,-0.013 0.023,-0.018 0.028,-0.018 0.06,-0.031 0.085,-0.04 0.005,-0.001 0.009,-0.003 0.013,-0.004 -0.16,-0.087 -0.369,-0.192 -0.578,-0.295zm-0.652 -0.311c-0.014,0.002 -0.036,0.005 -0.062,0.013 -0.001,0.001 -0.002,0.002 -0.003,0.003 0.078,0.022 0.169,0.051 0.253,0.085 -0.012,-0.009 -0.024,-0.017 -0.036,-0.024 -0.014,-0.009 -0.027,-0.017 -0.04,-0.024 -0.04,-0.019 -0.077,-0.037 -0.112,-0.053zm-0.12 0.037c-0.049,0.026 -0.101,0.069 -0.142,0.142 -0.011,0.02 -0.015,0.038 -0.015,0.055 0,0.016 0.004,0.03 0.011,0.045 0.014,0.025 0.038,0.048 0.067,0.07 0.044,0.033 0.098,0.062 0.142,0.091 0.023,0.014 0.042,0.029 0.057,0.044 0.007,0.007 0.013,0.015 0.017,0.024 0.005,0.008 0.007,0.017 0.007,0.027l0 0c0.002,-0.002 0.004,-0.004 0.006,-0.006 0.025,-0.023 0.06,-0.042 0.099,-0.058 0.022,-0.009 0.044,-0.017 0.067,-0.024 -0.011,-0.009 -0.023,-0.019 -0.036,-0.028 -0.043,-0.032 -0.095,-0.066 -0.142,-0.097 -0.047,-0.031 -0.09,-0.058 -0.114,-0.077 -0.025,-0.019 -0.043,-0.036 -0.056,-0.053 -0.013,-0.017 -0.02,-0.035 -0.02,-0.054 0,-0.015 0.004,-0.029 0.012,-0.044 0.007,-0.015 0.018,-0.03 0.031,-0.047 0.003,-0.003 0.006,-0.007 0.009,-0.01zm0.113 0.564c-0.01,0.008 -0.021,0.015 -0.033,0.02 -0.03,0.013 -0.068,0.02 -0.111,0.033 -0.043,0.014 -0.092,0.034 -0.144,0.071 -0.004,0.004 -0.01,0.003 -0.014,-0.002 -0.003,-0.005 -0.002,-0.011 0.002,-0.014 0.083,-0.06 0.158,-0.077 0.214,-0.092 0.028,-0.008 0.05,-0.015 0.066,-0.026 0.008,-0.006 0.014,-0.012 0.019,-0.02 0.005,-0.008 0.009,-0.018 0.011,-0.03l0 0c0,-0.002 0.001,-0.004 0.001,-0.006 0,-0.009 -0.004,-0.018 -0.011,-0.028 -0.013,-0.017 -0.038,-0.035 -0.067,-0.054 -0.044,-0.028 -0.099,-0.058 -0.144,-0.093 -0.022,-0.017 -0.042,-0.036 -0.056,-0.056 -0.015,-0.021 -0.024,-0.045 -0.024,-0.07 0,-0.021 0.006,-0.042 0.018,-0.065 0.04,-0.071 0.09,-0.116 0.139,-0.144 -0.029,-0.007 -0.055,-0.014 -0.075,-0.018 -0.014,-0.004 -0.025,-0.006 -0.033,-0.008 -0.004,-0.001 -0.007,-0.001 -0.009,-0.002 -0.001,0 -0.002,0 -0.003,0l0 0 0.002 -0.011 0 0.011c-0.002,0 -0.002,0 -0.002,0l0.002 -0.011 0 0.011c-0.008,0 -0.015,-0.006 -0.015,-0.014 0,-0.008 0.007,-0.015 0.015,-0.015 0.001,0 0.001,0 0.002,0 0.001,0.001 0.002,0.001 0.004,0.001 0.015,0.003 0.065,0.014 0.133,0.032 0.006,0.002 0.012,0.003 0.018,0.005 0.002,-0.001 0.004,-0.002 0.006,-0.002 0.002,-0.001 0.004,-0.002 0.007,-0.003 0.012,-0.014 0.021,-0.023 0.027,-0.03 -0.039,-0.018 -0.071,-0.033 -0.095,-0.044 -0.016,-0.007 -0.028,-0.012 -0.037,-0.016 -0.004,-0.001 -0.007,-0.003 -0.009,-0.004 -0.001,0 -0.002,0 -0.002,0l-0.001 -0.001 0.002 -0.006 -0.001 0.007 -0.001 -0.001 0.002 -0.006 -0.001 0.007 0.003 -0.013 0 0.013c-0.002,0 -0.003,0 -0.003,0l0.003 -0.013 0 0.013c-0.008,0 -0.014,-0.006 -0.014,-0.014 0,-0.008 0.006,-0.015 0.014,-0.015 0.001,0 0.002,0 0.003,0.001 0.002,0 0.002,0 0.004,0.001 0.004,0.001 0.011,0.004 0.021,0.009 0.158,0.069 1.091,0.506 1.505,0.74 0.163,0.092 0.28,0.196 0.356,0.307 0.076,0.11 0.111,0.228 0.111,0.345 0,0.093 -0.022,0.186 -0.064,0.275l-0.013 -0.006 0.014 0.003c0,0.003 -0.005,0.024 -0.035,0.063 -0.03,0.039 -0.084,0.096 -0.183,0.171 -0.067,0.05 -0.111,0.094 -0.145,0.137 -0.003,0.007 -0.006,0.014 -0.009,0.021 -0.029,0.066 -0.057,0.123 -0.098,0.175 -0.014,0.029 -0.029,0.061 -0.046,0.096 -0.025,0.047 -0.056,0.126 -0.099,0.219 -0.053,0.114 -0.124,0.25 -0.221,0.373l-0.001 0c0,0.002 -0.001,0.003 -0.002,0.004 -0.02,0.024 -0.04,0.048 -0.062,0.071 -0.132,0.14 -0.306,0.251 -0.536,0.269l-0.001 -0.014 0.004 0.014 0 0c-0.003,0.001 -0.031,0.01 -0.058,0.026 -0.013,0.008 -0.026,0.018 -0.036,0.03 -0.01,0.011 -0.017,0.024 -0.018,0.038 -0.001,0.008 -0.008,0.014 -0.016,0.013 -0.008,-0.001 -0.014,-0.008 -0.013,-0.016 0.003,-0.022 0.013,-0.04 0.026,-0.055 0.02,-0.023 0.047,-0.038 0.068,-0.048 0.022,-0.011 0.039,-0.015 0.039,-0.016l0.001 0 0.002 0c0.009,-0.001 0.019,-0.002 0.028,-0.003 -0.015,-0.04 -0.021,-0.084 -0.021,-0.128 0,-0.065 0.013,-0.13 0.028,-0.187 -0.004,0.001 -0.008,0.002 -0.013,0.003 -0.026,0.004 -0.06,0.005 -0.101,0.008 -0.078,0.005 -0.178,0.013 -0.278,0.047 -0.014,0.015 -0.028,0.033 -0.042,0.054 0,0 0,0 0,0.001 -0.029,0.043 -0.047,0.078 -0.059,0.107 -0.012,0.029 -0.016,0.052 -0.016,0.07 0,0.018 0.004,0.031 0.011,0.042 0.009,0.017 0.024,0.029 0.038,0.043 0.007,0.006 0.015,0.013 0.02,0.021 0.006,0.008 0.01,0.019 0.01,0.03 0,0.01 -0.003,0.021 -0.009,0.031 -0.003,0.007 -0.012,0.01 -0.019,0.007 -0.007,-0.004 -0.01,-0.013 -0.006,-0.02 0.004,-0.008 0.005,-0.013 0.005,-0.018 0,-0.003 0,-0.006 -0.002,-0.009 -0.002,-0.005 -0.007,-0.011 -0.015,-0.018 -0.011,-0.011 -0.026,-0.023 -0.039,-0.04 -0.013,-0.017 -0.023,-0.04 -0.022,-0.069 0,-0.023 0.005,-0.049 0.017,-0.081 0.013,-0.031 0.032,-0.067 0.061,-0.111 0.002,-0.005 0.003,-0.011 0.004,-0.016 -0.034,0.016 -0.067,0.035 -0.1,0.058 -0.004,0.004 -0.011,0.003 -0.014,-0.002 -0.003,-0.005 -0.002,-0.011 0.002,-0.014 0.037,-0.027 0.076,-0.048 0.114,-0.065 0,-0.018 -0.004,-0.034 -0.011,-0.051 -0.01,-0.024 -0.027,-0.049 -0.041,-0.079 -0.015,-0.03 -0.027,-0.066 -0.027,-0.112 0,-0.005 0.001,-0.01 0.001,-0.015 -0.007,0.009 -0.013,0.018 -0.02,0.026 -0.022,0.027 -0.046,0.045 -0.07,0.059 -0.036,0.02 -0.071,0.032 -0.103,0.049 -0.015,0.009 -0.03,0.019 -0.044,0.032 -0.014,0.014 -0.027,0.03 -0.039,0.053 -0.004,0.007 -0.012,0.01 -0.019,0.006 -0.007,-0.004 -0.01,-0.012 -0.006,-0.019 0.023,-0.045 0.052,-0.072 0.083,-0.09 0.023,-0.015 0.046,-0.024 0.069,-0.034 0.034,-0.015 0.067,-0.031 0.097,-0.063 0.03,-0.032 0.059,-0.08 0.082,-0.163 0.011,-0.038 0.016,-0.07 0.016,-0.097 0,-0.001 0,-0.002 0,-0.003 -0.007,-0.001 -0.012,-0.002 -0.016,-0.002 -0.034,0.039 -0.081,0.084 -0.146,0.136 -0.004,0.004 -0.011,0.003 -0.014,-0.001 -0.004,-0.004 -0.003,-0.011 0.001,-0.014 0.083,-0.067 0.135,-0.12 0.169,-0.166 -0.003,-0.013 -0.008,-0.024 -0.013,-0.035 -0.017,-0.036 -0.044,-0.065 -0.068,-0.1 -0.012,-0.018 -0.024,-0.038 -0.032,-0.061 -0.008,-0.023 -0.012,-0.05 -0.012,-0.081 0,-0.04 0.007,-0.086 0.026,-0.144 0.027,-0.086 0.064,-0.148 0.106,-0.193 0.025,-0.028 0.052,-0.05 0.08,-0.069 -0.005,-0.011 -0.012,-0.021 -0.019,-0.03 -0.016,-0.019 -0.036,-0.034 -0.058,-0.049 -0.032,-0.023 -0.068,-0.043 -0.096,-0.071 -0.014,-0.014 -0.027,-0.029 -0.035,-0.048 -0.009,-0.019 -0.014,-0.041 -0.014,-0.067 0,-0.047 0.016,-0.106 0.056,-0.185 0.056,-0.108 0.122,-0.173 0.189,-0.211 0.007,-0.004 0.014,-0.007 0.02,-0.01 -0.022,-0.024 -0.043,-0.048 -0.058,-0.072 -0.019,-0.028 -0.031,-0.056 -0.033,-0.086l0 0c0,-0.004 0,-0.007 0,-0.01 0,-0.024 0.005,-0.047 0.014,-0.067 0.016,-0.035 0.044,-0.064 0.077,-0.089 0.008,-0.006 0.016,-0.011 0.024,-0.017 -0.001,-0.005 -0.002,-0.011 -0.002,-0.016 0,-0.002 0,-0.003 0.001,-0.005zm-0.028 -0.616c0.001,0 0.001,0 0.002,-0.001l-0.001 0c0,0 -0.001,0.001 -0.001,0.001zm1.086 2.426c0,0 0.001,0.001 0.002,0.001 0.006,0.004 0.013,0.011 0.018,0.02 0.004,0.007 0.006,0.014 0.008,0.024 0.016,-0.035 0.031,-0.069 0.045,-0.1 0.028,-0.063 0.05,-0.116 0.069,-0.153 0.002,-0.005 0.004,-0.009 0.006,-0.013 -0.009,0.009 -0.019,0.017 -0.03,0.026 -0.013,0.041 -0.031,0.083 -0.053,0.12 -0.019,0.03 -0.04,0.057 -0.065,0.075zm0 0.1c0.006,-0.018 0.008,-0.032 0.008,-0.043 0,-0.012 -0.003,-0.02 -0.006,-0.026 -0.005,-0.009 -0.011,-0.013 -0.017,-0.015 -0.003,-0.002 -0.006,-0.002 -0.008,-0.002l-0.001 0c-0.038,0.018 -0.071,0.034 -0.1,0.044 -0.001,0 -0.002,0.001 -0.003,0.001 -0.01,0.038 -0.021,0.08 -0.031,0.124 -0.012,0.049 -0.023,0.099 -0.031,0.142 -0.002,0.009 -0.004,0.017 -0.005,0.025 0.009,-0.001 0.017,-0.001 0.024,-0.001 0.006,0 0.011,0 0.017,0.002 0.047,-0.063 0.088,-0.129 0.123,-0.194 0.011,-0.019 0.021,-0.039 0.03,-0.057zm-0.03 -0.106c0,0 0,0 0,0 0.03,-0.015 0.055,-0.044 0.077,-0.079 0.016,-0.027 0.03,-0.057 0.041,-0.087 -0.046,0.034 -0.178,0.093 -0.186,0.122 -0.004,0.017 -0.013,0.048 -0.023,0.085 0.026,-0.01 0.056,-0.024 0.091,-0.041zm-0.294 0.045c-0.009,0.015 -0.023,0.041 -0.036,0.072 -0.005,0.013 -0.011,0.026 -0.015,0.039 0.04,-0.005 0.074,-0.017 0.102,-0.032 0.023,-0.013 0.043,-0.028 0.059,-0.044 -0.031,0 -0.062,-0.009 -0.097,-0.026 -0.005,-0.003 -0.01,-0.006 -0.013,-0.009zm-0.061 0.141c-0.007,0.024 -0.011,0.048 -0.011,0.07 0,0.02 0.004,0.037 0.011,0.05 0.008,0.014 0.02,0.025 0.038,0.032 0.044,0.016 0.082,0.02 0.112,0.02 0.004,0 0.008,0 0.012,0 0.012,-0.074 0.036,-0.174 0.058,-0.259 0.002,-0.008 0.004,-0.017 0.006,-0.025 -0.004,0.001 -0.008,0.002 -0.012,0.003 -0.022,0.026 -0.051,0.052 -0.088,0.072 -0.035,0.019 -0.077,0.032 -0.126,0.037zm0.218 0.189c-0.001,0 -0.002,0 -0.003,0 -0.007,0 -0.016,0.001 -0.027,0.002 -0.003,0.016 -0.004,0.03 -0.005,0.042 0.012,-0.015 0.024,-0.029 0.035,-0.044zm-0.059 0.003c-0.003,0 -0.006,0 -0.009,0 -0.032,0 -0.073,-0.004 -0.119,-0.021 -0.022,-0.008 -0.039,-0.023 -0.049,-0.041 -0.01,-0.017 -0.013,-0.038 -0.013,-0.06 0,-0.022 0.004,-0.045 0.01,-0.069 -0.006,0.001 -0.011,0.001 -0.017,0.001 -0.016,0 -0.034,-0.001 -0.052,-0.003l-0.001 0 0 -0.001 -0.001 0c-0.001,0 -0.015,-0.003 -0.035,-0.003 -0.02,0 -0.044,0.003 -0.065,0.012 -0.017,0.007 -0.033,0.017 -0.045,0.033 -0.003,0.005 -0.006,0.011 -0.01,0.016 -0.003,0.007 -0.024,0.051 -0.044,0.113 0,0.003 0.001,0.006 0.001,0.008 0,0.007 -0.002,0.013 -0.006,0.018 -0.002,0.003 -0.003,0.004 -0.005,0.006 -0.018,0.06 -0.033,0.132 -0.033,0.201 0,0.043 0.006,0.085 0.02,0.123 0.001,0 0.001,0.001 0.001,0.001 0.123,-0.019 0.228,-0.066 0.318,-0.129 0.055,-0.039 0.105,-0.084 0.15,-0.133 0,-0.001 0,-0.002 -0.001,-0.003 0,-0.004 0,-0.009 0,-0.015 0,-0.014 0.001,-0.033 0.005,-0.054zm-0.172 -0.22c0.007,-0.02 0.015,-0.04 0.023,-0.057 0.016,-0.037 0.033,-0.066 0.039,-0.076 -0.001,-0.003 -0.001,-0.006 -0.001,-0.009 0,-0.01 0.002,-0.019 0.007,-0.029 0.007,-0.017 0.019,-0.035 0.034,-0.055 0.021,-0.03 0.047,-0.063 0.067,-0.098 0.02,-0.034 0.034,-0.07 0.034,-0.105 0,-0.014 -0.002,-0.028 -0.007,-0.042 -0.002,0 -0.004,-0.001 -0.006,-0.002 -0.001,0.001 -0.002,0.001 -0.003,0.001l0 0c0,0 -0.001,0 -0.004,0.001 -0.016,0.004 -0.09,0.024 -0.167,0.053 -0.039,0.014 -0.078,0.031 -0.111,0.049 -0.033,0.018 -0.06,0.038 -0.073,0.057 -0.012,0.017 -0.026,0.044 -0.04,0.077 -0.011,0.024 -0.022,0.051 -0.032,0.08 0.008,0.02 0.02,0.036 0.031,0.054 0.006,0.009 0.011,0.018 0.015,0.029 0.004,0.011 0.007,0.023 0.007,0.037 0,0.013 -0.003,0.029 -0.009,0.046 0.002,-0.001 0.004,-0.002 0.006,-0.003 0.027,-0.011 0.054,-0.013 0.076,-0.013 0.024,0 0.041,0.003 0.041,0.003l-0.003 0.014 0.002 -0.014c0.017,0.002 0.034,0.003 0.049,0.003 0.009,0 0.017,0 0.025,-0.001zm0.082 -0.136c0,0 0,0.001 0.001,0.001 0,0.001 0.001,0.002 0.001,0.003 0.002,0.003 0.006,0.006 0.012,0.009 0.035,0.017 0.064,0.025 0.093,0.025 0.005,0 0.01,0 0.015,-0.001 0.017,-0.018 0.03,-0.038 0.04,-0.056 0.011,-0.02 0.018,-0.038 0.023,-0.051 0.002,-0.006 0.004,-0.012 0.005,-0.015 0,-0.002 0.001,-0.003 0.001,-0.004l0 -0.001 0 0 0 0 0.001 -0.001 0 -0.001c0.027,-0.073 0.035,-0.146 0.035,-0.218 0,-0.008 0,-0.016 0,-0.024 -0.021,0.004 -0.041,0.007 -0.061,0.007 -0.01,0 -0.02,-0.001 -0.029,-0.002 0.003,0.012 0.005,0.024 0.005,0.036 0,0.031 -0.01,0.061 -0.023,0.089 -0.021,0.043 -0.052,0.083 -0.077,0.117 -0.012,0.017 -0.023,0.033 -0.031,0.047 -0.008,0.014 -0.012,0.026 -0.012,0.034 0,0.002 0.001,0.004 0.001,0.006zm-0.335 0.019c-0.006,0.018 -0.011,0.035 -0.016,0.053 -0.016,0.062 -0.027,0.124 -0.027,0.173 0,0.003 0,0.005 0,0.008 0.012,-0.013 0.025,-0.028 0.037,-0.047 0.003,-0.007 0.007,-0.013 0.011,-0.018 0.011,-0.018 0.018,-0.033 0.023,-0.045 0.007,-0.018 0.009,-0.031 0.009,-0.042 0,-0.014 -0.003,-0.024 -0.008,-0.035 -0.007,-0.014 -0.018,-0.029 -0.029,-0.047zm-0.494 0.407c0.002,0 0.003,-0.001 0.005,-0.001 0.037,-0.044 0.073,-0.071 0.11,-0.087 0.036,-0.016 0.072,-0.021 0.106,-0.023 0.025,-0.002 0.049,-0.001 0.073,-0.002 0.035,-0.001 0.068,-0.005 0.1,-0.019 0.012,-0.006 0.025,-0.013 0.037,-0.023 0,-0.009 -0.001,-0.017 -0.001,-0.026 0,-0.07 0.021,-0.159 0.047,-0.24 0.001,-0.004 0.003,-0.008 0.004,-0.012 -0.007,-0.018 -0.012,-0.039 -0.012,-0.064 0,-0.028 0.005,-0.061 0.019,-0.101 0.006,-0.017 0.012,-0.035 0.021,-0.054 -0.055,0.063 -0.123,0.103 -0.193,0.129 -0.091,0.033 -0.184,0.041 -0.257,0.041 -0.015,0 -0.03,0 -0.043,-0.001 -0.015,0.019 -0.03,0.042 -0.043,0.069 -0.038,0.08 -0.051,0.138 -0.051,0.184 0,0.027 0.005,0.05 0.012,0.07 0.01,0.031 0.026,0.056 0.04,0.083 0.013,0.023 0.024,0.048 0.026,0.077zm0.063 -0.02c0.07,-0.02 0.137,-0.028 0.196,-0.033 0.058,-0.005 0.108,-0.006 0.143,-0.011 0.012,-0.001 0.022,-0.003 0.029,-0.006 0.004,-0.012 0.008,-0.024 0.011,-0.035 -0.002,-0.006 -0.004,-0.012 -0.006,-0.018 -0.033,0.022 -0.067,0.032 -0.1,0.036 -0.029,0.003 -0.058,0.003 -0.086,0.003 -0.042,0.001 -0.083,0.004 -0.126,0.023 -0.02,0.009 -0.04,0.022 -0.061,0.041zm0.435 -0.461c0.007,-0.019 0.015,-0.036 0.022,-0.053 0.015,-0.033 0.029,-0.061 0.043,-0.08 0.017,-0.025 0.049,-0.047 0.086,-0.067 0.056,-0.03 0.126,-0.055 0.182,-0.072 0.036,-0.012 0.066,-0.02 0.083,-0.025 -0.001,-0.001 -0.002,-0.002 -0.003,-0.004 -0.008,-0.01 -0.012,-0.023 -0.012,-0.036 0,-0.019 0.007,-0.04 0.017,-0.063 0.014,-0.034 0.037,-0.071 0.059,-0.11 0.015,-0.027 0.03,-0.054 0.042,-0.08 -0.009,0.008 -0.018,0.015 -0.026,0.021 -0.032,0.022 -0.063,0.034 -0.095,0.044 -0.047,0.015 -0.094,0.027 -0.145,0.063 -0.043,0.031 -0.091,0.08 -0.143,0.164 -0.006,0.011 -0.012,0.022 -0.019,0.032 -0.002,0.005 -0.005,0.009 -0.008,0.015 -0.032,0.058 -0.053,0.104 -0.066,0.143 -0.013,0.038 -0.017,0.068 -0.017,0.092 0,0.005 0,0.011 0,0.016zm0.805 -0.315c-0.002,0.014 -0.009,0.056 -0.024,0.107 0.009,-0.008 0.017,-0.016 0.025,-0.024 0.011,-0.012 0.021,-0.023 0.03,-0.035 0.009,-0.019 0.017,-0.036 0.025,-0.053 -0.017,0.004 -0.031,0.006 -0.043,0.006 -0.004,0 -0.008,0 -0.013,-0.001zm-0.35 0.017c0,0 0,0 0,0 0.013,0.004 0.027,0.005 0.042,0.005 0.019,0 0.039,-0.002 0.06,-0.007 -0.003,-0.076 -0.012,-0.151 -0.012,-0.224 0,-0.031 0.002,-0.062 0.006,-0.092 -0.018,0.051 -0.05,0.105 -0.078,0.154 -0.014,0.025 -0.027,0.049 -0.037,0.071 -0.009,0.021 -0.014,0.04 -0.014,0.054 0,0.01 0.002,0.018 0.007,0.024 0.005,0.006 0.013,0.011 0.026,0.015zm0.298 0.115c0.004,-0.014 0.008,-0.029 0.012,-0.042 0.007,-0.028 0.013,-0.052 0.016,-0.07 0.002,-0.008 0.003,-0.015 0.004,-0.02 0,-0.002 0.001,-0.004 0.001,-0.006l0 0c-0.008,-0.004 -0.014,-0.011 -0.018,-0.018 -0.003,-0.006 -0.005,-0.013 -0.006,-0.02 -0.016,0.009 -0.046,0.024 -0.082,0.04 -0.028,0.012 -0.061,0.024 -0.094,0.033 0,0.011 0.001,0.021 0.001,0.031 0,0.064 -0.006,0.13 -0.026,0.196 0.082,-0.044 0.144,-0.084 0.192,-0.124zm0.093 -0.348l-0.001 0.001c-0.003,0.006 -0.02,0.032 -0.035,0.064 -0.007,0.016 -0.015,0.033 -0.02,0.05 -0.005,0.017 -0.009,0.033 -0.009,0.046 0,0.006 0.001,0.011 0.002,0.015 0.002,0.007 0.006,0.011 0.011,0.015 0.005,0.003 0.013,0.006 0.024,0.006 0.014,0 0.031,-0.003 0.055,-0.011 0.009,-0.02 0.02,-0.04 0.031,-0.059 0.012,-0.02 0.024,-0.039 0.039,-0.058 0.031,-0.08 0.057,-0.188 0.08,-0.293 0.014,-0.058 0.026,-0.116 0.04,-0.168 0.008,-0.034 0.017,-0.066 0.027,-0.095 -0.032,0.007 -0.095,0.022 -0.167,0.05 -0.098,0.038 -0.21,0.101 -0.282,0.2 -0.027,0.037 -0.043,0.076 -0.053,0.116 -0.011,0.041 -0.014,0.084 -0.014,0.128 0,0.069 0.008,0.142 0.011,0.217 0.031,-0.008 0.061,-0.019 0.087,-0.031 0.027,-0.011 0.05,-0.023 0.066,-0.031 0.008,-0.005 0.015,-0.008 0.019,-0.011 0.002,-0.001 0.003,-0.002 0.005,-0.002 0.001,-0.014 0.005,-0.029 0.01,-0.044 0.019,-0.057 0.056,-0.115 0.056,-0.116 0.003,-0.005 0.01,-0.006 0.015,-0.003 0.004,0.003 0.006,0.009 0.003,0.014zm-0.294 -0.094c0,0.001 0,0.002 0,0.002 0.001,-0.001 0.001,-0.002 0.001,-0.003l-0.001 0.001zm-0.424 -0.202l0 0c-0.003,0 -0.029,-0.006 -0.072,-0.006 -0.045,0 -0.11,0.007 -0.184,0.033 0.006,0.01 0.012,0.02 0.019,0.029 0.04,0.055 0.103,0.103 0.157,0.156 0.026,0.026 0.051,0.054 0.069,0.085 0.009,0.014 0.016,0.029 0.021,0.045 0.023,-0.093 0.029,-0.176 0.029,-0.236 0,-0.03 -0.002,-0.053 -0.003,-0.07 -0.001,-0.008 -0.001,-0.014 -0.002,-0.018 0,-0.001 0,-0.002 0,-0.003 -0.015,-0.003 -0.026,-0.009 -0.034,-0.014l0 0 0 -0.001zm-0.283 0.038c-0.005,0.002 -0.01,0.004 -0.015,0.006 -0.092,0.041 -0.195,0.114 -0.295,0.242l0 0c-0.021,0.077 -0.026,0.138 -0.026,0.189 0,0.047 0.004,0.087 0.004,0.126 0,0.05 -0.007,0.098 -0.04,0.153 -0.003,0.004 -0.006,0.009 -0.009,0.013 0.003,0.011 0.005,0.022 0.006,0.034 0.008,0.001 0.018,0.002 0.029,0.003 0.005,-0.007 0.011,-0.012 0.016,-0.018 0.044,-0.043 0.095,-0.065 0.147,-0.078 0.079,-0.02 0.163,-0.02 0.237,-0.042 0.038,-0.01 0.073,-0.026 0.105,-0.051 0.012,-0.009 0.024,-0.02 0.035,-0.033 0.035,-0.058 0.06,-0.116 0.079,-0.172 0,-0.003 0,-0.006 0,-0.009 0,-0.044 -0.017,-0.081 -0.044,-0.117 -0.04,-0.053 -0.103,-0.101 -0.157,-0.155 -0.026,-0.026 -0.051,-0.055 -0.069,-0.087 -0.001,-0.001 -0.002,-0.003 -0.003,-0.004zm-0.296 0.199c0.092,-0.108 0.187,-0.173 0.272,-0.211 0.005,-0.003 0.01,-0.005 0.015,-0.007 -0.011,-0.026 -0.018,-0.054 -0.018,-0.085 0,-0.003 0.001,-0.007 0.001,-0.011 -0.028,0.034 -0.058,0.059 -0.09,0.08 -0.034,0.023 -0.069,0.041 -0.103,0.06 -0.026,0.013 -0.05,0.026 -0.075,0.042 0.005,0.016 0.008,0.035 0.008,0.055 0,0.023 -0.003,0.048 -0.01,0.077zm0.314 -0.228c0.078,-0.028 0.145,-0.035 0.193,-0.035 0.023,0 0.041,0.001 0.054,0.003l0 -0.002c0,-0.114 -0.01,-0.206 -0.026,-0.279 -0.032,0.002 -0.064,0.006 -0.094,0.017 -0.023,0.008 -0.046,0.022 -0.066,0.042 -0.018,0.017 -0.034,0.039 -0.048,0.068 -0.004,0.015 -0.01,0.029 -0.018,0.044 -0.008,0.024 -0.011,0.046 -0.011,0.067 0,0.027 0.006,0.052 0.016,0.075zm0.32 0.01c0.002,0.015 0.004,0.045 0.004,0.087 0,0.07 -0.007,0.171 -0.041,0.282 0.001,0.004 0.001,0.009 0.001,0.013 0,0.01 -0.001,0.019 -0.002,0.029 0.025,-0.031 0.049,-0.055 0.073,-0.074 0.037,-0.03 0.073,-0.047 0.107,-0.06 0.025,-0.009 0.049,-0.016 0.072,-0.024 0.034,-0.011 0.065,-0.024 0.097,-0.051 0.031,-0.026 0.063,-0.067 0.096,-0.133 0.022,-0.045 0.031,-0.085 0.031,-0.12 0,-0.05 -0.018,-0.093 -0.046,-0.134 -0.041,-0.06 -0.106,-0.112 -0.16,-0.165 -0.028,-0.027 -0.053,-0.054 -0.071,-0.083 -0.003,-0.005 -0.006,-0.009 -0.009,-0.014 -0.002,0.012 -0.005,0.022 -0.009,0.032 -0.009,0.024 -0.022,0.042 -0.038,0.056 -0.014,0.011 -0.031,0.019 -0.048,0.024 -0.03,0.009 -0.063,0.01 -0.097,0.01 -0.013,0.001 -0.025,0.001 -0.038,0.001 0.016,0.074 0.025,0.166 0.025,0.28l-0.01 0 0.01 -0.003 -0.006 0.002 0.006 -0.002 0 0 -0.006 0.002 0.006 -0.002 0 0 0 0 0 0 0 0 0 0c0,0 0.003,0.007 0.012,0.013 0.01,0.007 0.027,0.014 0.057,0.014 0.036,0 0.09,-0.01 0.17,-0.043 0.006,-0.002 0.012,0.001 0.014,0.006 0.002,0.005 -0.001,0.011 -0.006,0.013 -0.081,0.033 -0.138,0.044 -0.178,0.044 -0.006,0 -0.011,0 -0.016,0zm-0.699 0.804c-0.005,0 -0.009,-0.001 -0.013,-0.001l0 0c0,0.007 -0.001,0.014 -0.001,0.022 0.004,-0.007 0.009,-0.014 0.014,-0.021zm0.052 -0.018c0.008,0.001 0.016,0.001 0.025,0.001 0.071,0 0.163,-0.009 0.25,-0.04 0.056,-0.021 0.11,-0.051 0.157,-0.095 -0.024,0.011 -0.048,0.02 -0.072,0.026 -0.08,0.02 -0.164,0.021 -0.237,0.041 -0.037,0.01 -0.071,0.025 -0.102,0.049 -0.007,0.006 -0.014,0.012 -0.021,0.018zm0.974 -1.5c0.004,0.01 0.006,0.019 0.006,0.027 0,0.005 -0.001,0.011 -0.003,0.015 -0.003,0.007 -0.01,0.012 -0.017,0.014 -0.006,0.003 -0.014,0.004 -0.023,0.004 -0.013,0 -0.029,-0.002 -0.047,-0.005 -0.005,-0.001 -0.009,-0.002 -0.014,-0.003 -0.014,0.012 -0.028,0.025 -0.038,0.039 -0.014,0.02 -0.025,0.042 -0.03,0.07 -0.001,0.005 -0.002,0.01 -0.002,0.014 0,0.005 0,0.011 0,0.016 0,0.002 0,0.004 0,0.006 0.002,0.014 0.005,0.028 0.012,0.042 0.013,0.031 0.038,0.061 0.068,0.091 0.044,0.045 0.101,0.091 0.146,0.144 0.023,0.026 0.043,0.055 0.058,0.086 0.015,0.031 0.023,0.065 0.023,0.103 0,0.012 -0.001,0.026 -0.003,0.039 0.078,-0.088 0.185,-0.144 0.276,-0.179 0.086,-0.032 0.158,-0.046 0.179,-0.05 -0.001,0.002 -0.002,0.005 -0.003,0.008l-0.001 -0.001c0.01,-0.021 0.014,-0.043 0.014,-0.065 0,-0.047 -0.021,-0.096 -0.054,-0.145 -0.05,-0.073 -0.128,-0.144 -0.2,-0.204 -0.036,-0.03 -0.071,-0.057 -0.099,-0.082 -0.029,-0.024 -0.052,-0.044 -0.066,-0.062 -0.002,-0.003 -0.004,-0.006 -0.006,-0.009 -0.001,0.002 -0.002,0.003 -0.003,0.005 -0.009,0.011 -0.021,0.019 -0.035,0.027 -0.024,0.014 -0.053,0.024 -0.084,0.035 -0.017,0.007 -0.036,0.013 -0.054,0.02zm-0.134 0.046c-0.019,-0.003 -0.038,-0.007 -0.06,-0.009 0.008,0.02 0.014,0.041 0.018,0.063 0.004,-0.005 0.007,-0.011 0.01,-0.017 0.009,-0.014 0.02,-0.026 0.032,-0.037zm-0.092 -0.013c-0.027,-0.003 -0.054,-0.005 -0.084,-0.005 -0.09,0 -0.193,0.017 -0.296,0.077l-0.003 -0.005c0,0 0,0 0,-0.001 0.002,-0.002 0.003,-0.006 0.002,-0.009 0,-0.001 0,-0.002 0,-0.003 0.014,0.003 0.065,0.018 0.115,0.087 0.03,0.041 0.059,0.101 0.081,0.188 0.029,-0.001 0.057,-0.001 0.082,-0.003 0.02,-0.001 0.039,-0.003 0.054,-0.008 0.012,-0.004 0.023,-0.009 0.032,-0.016 0.014,-0.011 0.025,-0.026 0.033,-0.049 0.008,-0.021 0.013,-0.05 0.013,-0.088 0,-0.004 0,-0.009 0,-0.013 0,-0.004 0,-0.007 0,-0.011 0,-0.005 0,-0.011 0,-0.016 -0.003,-0.048 -0.013,-0.089 -0.029,-0.125zm-0.206 0.33c-0.021,-0.083 -0.049,-0.139 -0.077,-0.177 -0.027,-0.037 -0.053,-0.057 -0.073,-0.067 -0.01,-0.006 -0.018,-0.009 -0.023,-0.011 -0.003,-0.001 -0.005,-0.001 -0.006,-0.001l-0.002 -0.001 0 0 0 0 0 -0.003 0 0.003 0 0 0 -0.003 0 0.003 -0.004 0c-0.002,0.001 -0.004,0.001 -0.006,0.002 -0.003,0 -0.006,0 -0.009,0 -0.014,0 -0.033,-0.003 -0.057,-0.006 -0.023,-0.003 -0.052,-0.006 -0.083,-0.006 -0.039,0 -0.083,0.005 -0.128,0.021 0.055,0.053 0.121,0.11 0.174,0.168 0.027,0.03 0.051,0.061 0.069,0.093 0.014,0.025 0.023,0.052 0.027,0.079 0.007,-0.01 0.015,-0.019 0.023,-0.027 0.021,-0.021 0.043,-0.035 0.067,-0.045 0.035,-0.015 0.072,-0.02 0.108,-0.022zm-0.176 -0.281c0.104,-0.058 0.208,-0.074 0.298,-0.074 0.026,0 0.05,0.001 0.074,0.003 -0.012,-0.022 -0.025,-0.042 -0.04,-0.06 -0.066,-0.081 -0.162,-0.131 -0.242,-0.168 -0.04,-0.018 -0.076,-0.033 -0.104,-0.048 -0.013,-0.007 -0.024,-0.014 -0.033,-0.022 -0.005,-0.004 -0.008,-0.008 -0.011,-0.013 -0.002,-0.003 -0.003,-0.006 -0.004,-0.009 -0.005,0.003 -0.01,0.005 -0.016,0.007 -0.025,0.011 -0.057,0.022 -0.092,0.036 -0.038,0.016 -0.079,0.034 -0.116,0.056 0.001,0 0.001,0.001 0.002,0.002 0.009,0.022 0.027,0.045 0.05,0.068 0.034,0.034 0.079,0.069 0.12,0.103 0.042,0.034 0.081,0.067 0.104,0.101 0.004,0.005 0.006,0.009 0.008,0.013 0.001,0.002 0.002,0.004 0.002,0.005zm0.405 -0.067c0.021,0.002 0.041,0.005 0.059,0.009 0.011,0.001 0.021,0.003 0.03,0.005 0.013,-0.01 0.027,-0.019 0.042,-0.027 0.013,-0.007 0.027,-0.014 0.041,-0.02 -0.007,-0.013 -0.016,-0.026 -0.027,-0.04 -0.03,-0.039 -0.074,-0.084 -0.123,-0.128 -0.073,-0.066 -0.157,-0.132 -0.223,-0.181 -0.033,-0.025 -0.061,-0.045 -0.081,-0.06 -0.006,-0.004 -0.011,-0.008 -0.016,-0.011 -0.026,0.03 -0.065,0.065 -0.122,0.101 -0.008,0.005 -0.014,0.01 -0.017,0.014 -0.002,0.003 -0.003,0.005 -0.003,0.006 0,0 0.001,0.001 0.003,0.004 0.001,0.003 0.005,0.006 0.01,0.01 0.009,0.006 0.024,0.014 0.041,0.022 0.031,0.015 0.071,0.032 0.115,0.053 0.066,0.032 0.139,0.074 0.197,0.135 0.03,0.031 0.055,0.066 0.074,0.108zm0.13 0.021c0.014,0.002 0.027,0.003 0.036,0.003 0.01,0 0.016,-0.001 0.019,-0.003 0.001,-0.001 0.002,-0.002 0.003,-0.003 0,-0.001 0.001,-0.003 0.001,-0.006 0,-0.004 -0.002,-0.011 -0.004,-0.019 -0.02,0.008 -0.038,0.017 -0.055,0.028zm-0.603 -0.774c0.009,0.007 0.018,0.014 0.028,0.022 0.049,0.023 0.093,0.048 0.128,0.075 0.02,0.016 0.037,0.032 0.05,0.05 0.006,0.008 0.011,0.016 0.014,0.024 0.003,-0.002 0.007,-0.004 0.01,-0.006 0.017,-0.011 0.038,-0.016 0.057,-0.019 0.005,-0.001 0.009,-0.001 0.014,-0.002 -0.05,-0.024 -0.1,-0.048 -0.148,-0.071 -0.053,-0.025 -0.104,-0.05 -0.153,-0.073zm0.119 0.316c-0.028,0.005 -0.068,0.014 -0.111,0.025l0.001 0.001c0.009,0.009 0.016,0.017 0.021,0.025 0.002,0.004 0.004,0.007 0.006,0.011 0.001,0 0.001,-0.001 0.002,-0.001 0.033,-0.021 0.06,-0.042 0.081,-0.061zm-0.443 -0.388c-0.006,0.008 -0.013,0.016 -0.02,0.025 -0.013,0.016 -0.023,0.03 -0.029,0.042 -0.006,0.012 -0.008,0.022 -0.008,0.031 0,0.012 0.004,0.023 0.014,0.037 0.01,0.014 0.027,0.029 0.05,0.047 0.019,0.015 0.05,0.036 0.087,0.059 0.054,0.036 0.12,0.078 0.173,0.118 0.018,0.013 0.034,0.026 0.048,0.038 0.027,-0.008 0.053,-0.014 0.076,-0.019 0.035,-0.008 0.063,-0.013 0.078,-0.015 0.001,-0.002 0.003,-0.003 0.004,-0.005 0.002,-0.008 0.002,-0.016 0.002,-0.025 0,-0.048 -0.021,-0.094 -0.053,-0.137 -0.017,-0.023 -0.037,-0.044 -0.059,-0.065 -0.023,-0.011 -0.046,-0.022 -0.071,-0.032 -0.095,-0.04 -0.203,-0.074 -0.292,-0.099zm0.3 0.422c-0.003,0.001 -0.007,0.002 -0.01,0.004 -0.043,0.013 -0.085,0.03 -0.119,0.049 -0.017,0.01 -0.032,0.021 -0.043,0.032 -0.012,0.011 -0.02,0.022 -0.025,0.034 -0.003,0.009 -0.004,0.017 -0.004,0.025 0,0.001 0,0.003 0,0.005 0.039,-0.023 0.081,-0.041 0.12,-0.056 0.026,-0.011 0.051,-0.02 0.071,-0.028 0.01,-0.004 0.019,-0.007 0.026,-0.011 0.008,-0.003 0.014,-0.006 0.017,-0.009l0.001 -0.001 -0.001 0.001c0.001,-0.001 0.002,-0.001 0.002,-0.001l0 0 0 0 0 0 0 0 0 0 0 -0.001c0,0 -0.001,-0.002 -0.002,-0.005 -0.003,-0.006 -0.009,-0.014 -0.018,-0.024 -0.004,-0.004 -0.009,-0.009 -0.015,-0.014zm-0.229 0.516c-0.008,0.004 -0.016,0.008 -0.025,0.013 -0.063,0.035 -0.127,0.097 -0.18,0.203 -0.04,0.077 -0.055,0.133 -0.055,0.175 0,0.041 0.014,0.069 0.035,0.092 0.016,0.018 0.036,0.033 0.057,0.047 0.033,0.022 0.069,0.043 0.097,0.073 0.012,0.012 0.022,0.026 0.031,0.042 0.035,-0.022 0.071,-0.04 0.106,-0.059 0.034,-0.019 0.067,-0.038 0.098,-0.063 0.03,-0.025 0.059,-0.055 0.084,-0.096 0.001,-0.002 0.002,-0.003 0.003,-0.005 0.003,-0.008 0.006,-0.017 0.01,-0.026 0.002,-0.005 0.004,-0.01 0.007,-0.015 0.002,-0.011 0.003,-0.021 0.003,-0.031 0,-0.022 -0.005,-0.044 -0.014,-0.066 -0.017,-0.038 -0.047,-0.077 -0.083,-0.116 -0.053,-0.057 -0.119,-0.113 -0.174,-0.168zm-0.125 1.309c0.03,-0.051 0.037,-0.094 0.037,-0.141 0,-0.037 -0.004,-0.077 -0.004,-0.126 0,-0.059 0.006,-0.13 0.034,-0.223 0.011,-0.036 0.016,-0.066 0.016,-0.092 0,-0.016 -0.002,-0.03 -0.005,-0.043 -0.019,0.013 -0.038,0.028 -0.055,0.045 -0.045,0.044 -0.085,0.104 -0.115,0.198 -0.018,0.056 -0.025,0.099 -0.025,0.135 0,0.037 0.008,0.066 0.019,0.091 0.018,0.037 0.044,0.066 0.068,0.101 0.012,0.016 0.022,0.034 0.03,0.055zm0.138 -1.336c0.051,-0.02 0.101,-0.026 0.144,-0.025 0.033,0 0.062,0.003 0.086,0.006 0.024,0.003 0.043,0.006 0.054,0.006 0.004,0 0.007,-0.001 0.007,-0.001l0 0.002 -0.001 -0.002 0.001 0 0 0.002 -0.001 -0.002 0.003 0.004 -0.004 -0.002 0.001 -0.002 0.003 0.004 -0.004 -0.002 0.003 0.001 -0.003 0 0 -0.001 0.003 0.001 -0.003 0 0 0c0,-0.001 -0.001,-0.002 -0.002,-0.005 -0.001,-0.002 -0.003,-0.005 -0.006,-0.009 -0.016,-0.023 -0.041,-0.048 -0.071,-0.074 -0.044,-0.038 -0.098,-0.077 -0.14,-0.118 -0.021,-0.02 -0.04,-0.041 -0.053,-0.062 -0.005,-0.007 -0.009,-0.014 -0.012,-0.021 -0.008,0.005 -0.015,0.01 -0.022,0.016 -0.022,0.017 -0.041,0.036 -0.054,0.058 -0.012,0.021 -0.02,0.044 -0.02,0.07 0,0.002 0,0.005 0.001,0.008l0 0c0.001,0.017 0.007,0.036 0.017,0.055 0.016,0.029 0.042,0.06 0.073,0.093zm1.769 0.275c-0.009,-0.001 -0.024,-0.002 -0.041,-0.002 -0.031,0 -0.07,0.003 -0.105,0.018 -0.018,0.008 -0.035,0.018 -0.049,0.031 -0.015,0.013 -0.027,0.03 -0.037,0.052 -0.014,0.034 -0.028,0.08 -0.041,0.131 -0.019,0.077 -0.038,0.168 -0.059,0.255 -0.012,0.049 -0.024,0.097 -0.038,0.141 0.028,-0.028 0.062,-0.057 0.103,-0.088 0.097,-0.073 0.15,-0.129 0.177,-0.165 0.014,-0.018 0.022,-0.032 0.026,-0.041 0.002,-0.004 0.003,-0.007 0.004,-0.009 0,-0.001 0,-0.001 0,-0.002l0 0 0.007 0.002 -0.007 -0.002 0 0 0.007 0.002 -0.007 -0.002 0.001 -0.001 0 -0.002c0.041,-0.086 0.062,-0.174 0.062,-0.263 0,-0.018 -0.001,-0.037 -0.003,-0.055zm-1.129 1.444l-0.001 0.001c-0.011,0.002 -0.114,0.022 -0.215,0.085 -0.051,0.031 -0.101,0.074 -0.14,0.129 -0.039,0.056 -0.066,0.125 -0.07,0.212 -0.001,0.005 -0.005,0.01 -0.011,0.009 -0.006,0 -0.01,-0.005 -0.01,-0.01 0.005,-0.094 0.035,-0.169 0.078,-0.228 0.064,-0.089 0.156,-0.143 0.231,-0.176 0.075,-0.032 0.135,-0.042 0.135,-0.042 0.006,-0.001 0.011,0.003 0.012,0.009 0.001,0.005 -0.003,0.01 -0.009,0.011z"/>
   <path class="fil1" d="M3.486 3.03c0.015,-0.007 0.044,-0.021 0.077,-0.041 0.043,-0.026 0.093,-0.062 0.13,-0.104 -0.001,-0.002 -0.022,-0.171 -0.037,-0.24l-0.244 -0.107c-0.043,0.019 -0.174,0.125 -0.2,0.147l0 0.001c-0.006,0.061 0.005,0.125 0.017,0.174 0.009,0.035 0.018,0.062 0.023,0.074 0.029,0.016 0.145,0.079 0.234,0.096zm0.365 -0.53c0,-0.016 -0.001,-0.037 -0.004,-0.064 -0.005,-0.048 -0.017,-0.112 -0.042,-0.179 -0.075,-0.068 -0.207,-0.097 -0.231,-0.102 -0.053,0.024 -0.105,0.057 -0.144,0.09 -0.027,0.022 -0.048,0.042 -0.061,0.054l0.001 0c0.002,0.051 0.034,0.201 0.041,0.233l0.25 0.109c0.024,-0.017 0.135,-0.094 0.19,-0.141zm-0.72 0.503l0 0c-0.026,-0.015 -0.081,-0.055 -0.131,-0.126 -0.004,-0.007 -0.008,-0.015 -0.012,-0.022 0.03,0.043 0.068,0.085 0.094,0.108 0.022,0.018 0.041,0.03 0.054,0.037l0.109 -0.069c-0.013,-0.037 -0.047,-0.143 -0.039,-0.243 -0.063,-0.032 -0.144,-0.129 -0.157,-0.144 -0.01,0.006 -0.025,0.016 -0.041,0.026 -0.024,0.015 -0.048,0.033 -0.062,0.047l0 0c0,0 -0.004,0.069 0.001,0.132 -0.013,-0.048 -0.021,-0.108 -0.021,-0.16 0,-0.005 -0.001,-0.015 -0.001,-0.02 0.005,0.015 0.011,0.033 0.018,0.043 0.025,-0.025 0.081,-0.059 0.105,-0.074 0.022,-0.145 0.098,-0.241 0.098,-0.241l0 0c-0.01,-0.025 -0.025,-0.073 -0.021,-0.127 -0.008,0.003 -0.026,0.01 -0.043,0.018 0.043,-0.046 0.111,-0.096 0.167,-0.126 -0.04,0.026 -0.092,0.067 -0.119,0.106 -0.002,0.039 0.004,0.075 0.012,0.101 0.003,0.011 0.007,0.02 0.009,0.027 0.082,-0.025 0.185,-0.005 0.212,0.001 0.027,-0.027 0.113,-0.107 0.207,-0.148 -0.005,-0.056 -0.021,-0.098 -0.026,-0.111 -0.024,-0.009 -0.07,-0.022 -0.127,-0.031 0.003,0 0.005,-0.001 0.008,-0.001 0.026,0.002 0.079,0.008 0.127,0.025 0.048,-0.01 0.092,-0.01 0.126,-0.008 0.055,0.016 0.106,0.04 0.153,0.07 0.032,0.031 0.058,0.064 0.068,0.078 0.03,0.013 0.058,0.033 0.073,0.045 0.003,0.003 0.004,0.005 0.006,0.008 -0.03,-0.024 -0.063,-0.038 -0.077,-0.042 -0.041,0.024 -0.08,0.063 -0.091,0.074 0.04,0.106 0.046,0.201 0.047,0.245 0.02,0.015 0.124,0.095 0.137,0.146 0.007,-0.003 0.015,-0.007 0.024,-0.012 0.022,-0.014 0.049,-0.035 0.075,-0.068 0.001,-0.009 0.002,-0.051 0,-0.093 0.007,0.034 0.012,0.082 0.012,0.118 -0.003,-0.006 -0.007,-0.015 -0.01,-0.019 -0.038,0.048 -0.079,0.071 -0.101,0.08 -0.001,0.023 -0.014,0.136 -0.086,0.23 0.003,0.023 0.008,0.066 0.004,0.117 -0.001,0.004 -0.001,0.008 -0.002,0.012 0.009,-0.002 0.022,-0.01 0.031,-0.015 -0.031,0.031 -0.079,0.07 -0.115,0.093 0.036,-0.031 0.074,-0.067 0.081,-0.075 0.001,-0.005 0.002,-0.01 0.002,-0.015 0.004,-0.05 0,-0.091 -0.004,-0.114 -0.009,0.004 -0.096,0.039 -0.207,0.001 -0.066,0.078 -0.177,0.133 -0.211,0.148l0.019 0.112c0.029,0.004 0.125,0.01 0.219,-0.007 -0.005,0.002 -0.007,0.003 -0.012,0.005 -0.055,0.013 -0.139,0.024 -0.206,0.012 0,0 -0.045,0.011 -0.114,0.008 -0.057,-0.012 -0.111,-0.033 -0.161,-0.06 -0.035,-0.026 -0.075,-0.061 -0.101,-0.102z"/>
  </g>
  <g id="_2506595353120">
   <polygon class="fil2" points="4.776,1.706 4.924,1.597 2.731,0.336 0.535,1.627 0.555,4.201 2.764,5.439 4.984,4.123 4.799,4.033 2.776,5.238 0.712,4.123 0.691,1.722 2.714,0.529 "/>
   <polygon class="fil2" points="4.642,1.774 4.682,1.73 2.734,0.625 0.784,1.761 0.796,4.041 2.77,5.162 4.716,3.996 4.65,3.957 2.77,5.088 0.849,4.005 0.84,1.795 2.73,0.699 "/>
  </g>
 </g>
</svg>
